<svg xmlns="http://www.w3.org/2000/svg" xmlns:xlink="http://www.w3.org/1999/xlink" viewBox="0 0 1921 869"><defs><style>.cls-1{fill:none;}.cls-1,.cls-4,.cls-6{stroke:#fff100;}.cls-1,.cls-2,.cls-3,.cls-4,.cls-6{stroke-miterlimit:10;}.cls-2{stroke:#fff;}.cls-3,.cls-4{fill:#fff100;}.cls-3{stroke:#e01e1e;}.cls-5{clip-path:url(#clip-path);}.cls-7{clip-path:url(#clip-path-2);}.cls-8{clip-path:url(#clip-path-3);}</style><clipPath id="clip-path"><path class="cls-1" d="M1023.7,388a62.7,62.7,0,1,1-62.7-62.7A62.7,62.7,0,0,1,1023.7,388Z"/></clipPath><clipPath id="clip-path-2"><path class="cls-1" d="M963.17,324h-4.34a59.22,59.22,0,0,0-59.22,59.23V633.54a22.22,22.22,0,0,0,22.2,22.21h78.38a22.22,22.22,0,0,0,22.2-22.21V383.2A59.22,59.22,0,0,0,963.17,324Zm-.86,240.35a57.48,57.48,0,1,1,57.47-57.48A57.49,57.49,0,0,1,962.31,564.32Z"/></clipPath><clipPath id="clip-path-3"><path class="cls-1" d="M1026.31,635.5a65.56,65.56,0,0,1-6.65,28.86H901a66,66,0,1,1,125.28-28.86Z"/></clipPath></defs><g id="Layer_2" data-name="Layer 2"><g id="Layer_1-2" data-name="Layer 1"><rect class="cls-2" x="0.5" y="0.5" width="1920" height="868"/><path class="cls-3" d="M963.17,324h-4.34a59.22,59.22,0,0,0-59.22,59.23V633.54a22.22,22.22,0,0,0,22.2,22.21h78.38a22.22,22.22,0,0,0,22.2-22.21V383.2A59.22,59.22,0,0,0,963.17,324Zm-.86,240.35a57.48,57.48,0,1,1,57.47-57.48A57.49,57.49,0,0,1,962.31,564.32Z"/><circle class="cls-4" cx="961" cy="506.84" r="23.51"/><g class="cls-5"><rect class="cls-6" x="989.66" y="337.03" width="28.74" height="28.74" transform="translate(45.59 812.88) rotate(-45)"/><rect class="cls-6" x="989.66" y="376.22" width="28.74" height="28.74" transform="translate(17.88 824.35) rotate(-45)"/><rect class="cls-6" x="989.66" y="415.41" width="28.74" height="28.74" transform="translate(-9.83 835.83) rotate(-45)"/><rect class="cls-6" x="950.47" y="337.03" width="28.74" height="28.74" transform="translate(34.12 785.17) rotate(-45)"/><rect class="cls-6" x="950.47" y="376.22" width="28.74" height="28.74" transform="translate(6.41 796.64) rotate(-45)"/><rect class="cls-6" x="950.47" y="415.41" width="28.74" height="28.74" transform="translate(-21.3 808.12) rotate(-45)"/><rect class="cls-6" x="911.28" y="337.03" width="28.74" height="28.74" transform="translate(22.64 757.46) rotate(-45)"/><rect class="cls-6" x="911.28" y="376.22" width="28.74" height="28.74" transform="translate(-5.07 768.93) rotate(-45)"/><rect class="cls-6" x="911.28" y="415.41" width="28.74" height="28.74" transform="translate(-32.78 780.41) rotate(-45)"/></g><path class="cls-1" d="M1023.7,388a62.7,62.7,0,1,1-62.7-62.7A62.7,62.7,0,0,1,1023.7,388Z"/><g class="cls-7"><g class="cls-8"><rect class="cls-6" x="898.51" y="544.8" width="10.99" height="184.15"/><rect class="cls-1" x="908.13" y="544.8" width="10.99" height="184.15"/><rect class="cls-6" x="917.75" y="544.8" width="10.99" height="184.15"/><rect class="cls-1" x="927.37" y="544.8" width="10.99" height="184.15"/><rect class="cls-6" x="936.98" y="544.8" width="10.99" height="184.15"/><rect class="cls-1" x="946.6" y="544.8" width="10.99" height="184.15"/><rect class="cls-6" x="956.22" y="544.8" width="10.99" height="184.15"/><rect class="cls-1" x="965.84" y="544.8" width="10.99" height="184.15"/><rect class="cls-6" x="975.46" y="544.8" width="10.99" height="184.15"/><rect class="cls-1" x="985.08" y="544.8" width="10.99" height="184.15"/><rect class="cls-6" x="994.7" y="544.8" width="10.99" height="184.15"/><rect class="cls-1" x="1004.32" y="544.8" width="10.99" height="184.15"/><rect class="cls-6" x="1013.94" y="544.8" width="10.99" height="184.15"/></g><path class="cls-1" d="M1026.31,635.5a65.56,65.56,0,0,1-6.65,28.86H901a66,66,0,1,1,125.28-28.86Z"/></g><path class="cls-1" d="M963.17,324h-4.34a59.22,59.22,0,0,0-59.22,59.23V633.54a22.22,22.22,0,0,0,22.2,22.21h78.38a22.22,22.22,0,0,0,22.2-22.21V383.2A59.22,59.22,0,0,0,963.17,324Zm-.86,240.35a57.48,57.48,0,1,1,57.47-57.48A57.49,57.49,0,0,1,962.31,564.32Z"/><path class="cls-4" d="M948.5,214.25h25a7.75,7.75,0,0,1,7.75,7.75v13.15a0,0,0,0,1,0,0H940.75a0,0,0,0,1,0,0V222A7.75,7.75,0,0,1,948.5,214.25Z"/><rect class="cls-4" x="940.75" y="245.6" width="40.49" height="20.9"/><rect class="cls-4" x="940.75" y="279.56" width="40.49" height="35.27"/></g></g></svg>