<svg xmlns="http://www.w3.org/2000/svg" viewBox="0 0 816.71 930.22"><defs><style>.cls-1{fill:#fff;}.cls-2,.cls-3{fill:#231f20;}.cls-3{stroke:#231f20;stroke-miterlimit:10;}.cls-4{fill:#aca434;}.cls-5{fill:#fcee1d;}.cls-6{fill:#1a1718;}</style></defs><g id="Layer_2" data-name="Layer 2"><g id="Layer_7" data-name="Layer 7"><path class="cls-1" d="M730.75,383.72H665.16a76.84,76.84,0,0,0-17.95,2.11,75.12,75.12,0,0,0-8.92,2.71V298.11C674.06,248.39,728,147.6,676.18,42.51c-12.77-25.92-23.47-39.17-34.35-42-19.67,4.86-24.23,40.08-27.25,93.84A30.24,30.24,0,0,0,606.23,85q-.29,4.6-.56,9.41c-3.62-6-8.42-10.73-14.93-12.57-.48-.14-1-.25-1.44-.36-11.52,2.38-22.15,13.54-33.25,25.2-8.87,9.32-22.27,23.41-29.11,22.1a6.56,6.56,0,0,1-2.84-1.53c-2.31,1.24-4.39,1.85-6.07,1.53-1.38-.26-6.35-2.25-12.29-16.87-7.24-17.84-16.25-28-27.54-31.23a25.39,25.39,0,0,0-3.35-.72c-11.93,1.76-23.4,10.25-35.37,19.1-17.66,13.06-31.69,22.43-45.89,20.09-12.35,1.91-24.24-3.67-38.13-21.91S328.32,69.44,314.7,67.73c-14,1.76-25.35,11.52-35.59,20.29-10.5,9-20.43,17.51-30.86,16.29a17,17,0,0,1-2.37-.44h0a18.5,18.5,0,0,1-6.54.44c-10.42-1.23-22.85-11.7-37-31.12-14.43-19.86-26.27-30.34-37.2-32.59h-.08c-18.56,4-23.83,29.11-29.93,58.22-4.1,19.54-9.7,46.3-18.68,50.55-1.79.85-4.32.57-7.54-.84a7.65,7.65,0,0,1-1.37.84c-2.11,1-5.21.44-9.24-1.66-5.93-3.08-12.72-6.16-19.3-7.24a17.86,17.86,0,0,0-6.61,2.73c-10.5,7.11-9.05,21.51-7.65,35.42,1,10.49,2.36,23.55-2.06,28.18-2.53,2.65-8,2.93-12.14,2.72-1.24-.06-2.43-.1-3.6-.11a32.51,32.51,0,0,1-4.39.14c-11.6.82-19.19,5.28-22.61,13.29-5.11,12,1.57,28.49,21,51.91a347,347,0,0,0,24.73,26.48l2,4.5v99.7c-2.78,1.05-5.78,2.22-8.92,3.5V676.22a104.24,104.24,0,0,0,8.92,7.31V863.89A66.4,66.4,0,0,0,134,930.22H572a66.4,66.4,0,0,0,66.33-66.33v-77a75.12,75.12,0,0,0,8.92,2.71,76.84,76.84,0,0,0,17.95,2.11h65.59a77.13,77.13,0,0,0,77-77V460.76A77.13,77.13,0,0,0,730.75,383.72ZM659.9,484.05c0-17.55,11.47-31.83,25.58-31.83h36.88c14.1,0,25.57,14.27,25.57,31.82V691.39c0,17.55-11.47,31.82-25.57,31.82H685.48c-14.11,0-25.58-14.28-25.58-31.82Z"/><path class="cls-2" d="M722.36,433.22h-28c-22.53,0-40.85,22.8-40.85,50.83V691.39c0,2.13.11,4.22.31,6.28v0c2.5,25.07,19.73,44.51,40.54,44.51h28c22.52,0,40.85-22.8,40.85-50.83V484.05C763.21,456,744.88,433.22,722.36,433.22Zm25.57,258.17c0,17.55-11.47,31.82-25.57,31.82h-28c-14.11,0-25.58-14.27-25.58-31.82V484.05c0-17.55,11.47-31.82,25.58-31.82h28c14.1,0,25.57,14.27,25.57,31.82ZM722.36,433.22h-28c-22.53,0-40.85,22.8-40.85,50.83V691.39c0,2.13.11,4.22.31,6.28v0c2.5,25.07,19.73,44.51,40.54,44.51h28c22.52,0,40.85-22.8,40.85-50.83V484.05C763.21,456,744.88,433.22,722.36,433.22Zm25.57,258.17c0,17.55-11.47,31.82-25.57,31.82h-28c-14.11,0-25.58-14.27-25.58-31.82V484.05c0-17.55,11.47-31.82,25.58-31.82h28c14.1,0,25.57,14.27,25.57,31.82ZM85.36,434.1c-.33.45-.65.92-1,1.39s-.67,1-1,1.53-.63,1-.93,1.56-.57,1-.84,1.52-.66,1.27-1,1.91c-.17.34-.33.68-.49,1s-.25.53-.36.8-.2.45-.29.68c-.24.56-.47,1.13-.69,1.7-.11.27-.22.55-.31.82s-.21.55-.3.82c-.3.82-.57,1.64-.83,2.45q-.3,1-.57,1.95c-.17.61-.33,1.21-.48,1.81s-.25,1-.36,1.52c-.16.7-.31,1.39-.45,2.09,0,.17-.06.33-.1.5l-.09.5c0,.2-.08.4-.11.59s-.07.4-.1.59c-.1.6-.19,1.19-.28,1.78-.06.39-.11.78-.16,1.16-.07.55-.14,1.09-.2,1.63s-.12,1.08-.17,1.62c-.1,1.07-.18,2.12-.24,3.16,0,.52-.06,1-.08,1.54s-.05,1-.06,1.51c0,.32,0,.64,0,.95,0,1.19,0,2.35,0,3.47l6.09.54,8.07.6.63.05V430A48,48,0,0,0,85.36,434.1Zm637-.88h-28c-22.53,0-40.85,22.8-40.85,50.83V691.39c0,2.13.11,4.22.31,6.28v0c2.5,25.07,19.73,44.51,40.54,44.51h28c22.52,0,40.85-22.8,40.85-50.83V484.05C763.21,456,744.88,433.22,722.36,433.22Zm25.57,258.17c0,17.55-11.47,31.82-25.57,31.82h-28c-14.11,0-25.58-14.27-25.58-31.82V484.05c0-17.55,11.47-31.82,25.58-31.82h28c14.1,0,25.57,14.27,25.57,31.82ZM722.36,433.22h-28c-22.53,0-40.85,22.8-40.85,50.83V691.39c0,2.13.11,4.22.31,6.28v0c2.5,25.07,19.73,44.51,40.54,44.51h28c22.52,0,40.85-22.8,40.85-50.83V484.05C763.21,456,744.88,433.22,722.36,433.22Zm25.57,258.17c0,17.55-11.47,31.82-25.57,31.82h-28c-14.11,0-25.58-14.27-25.58-31.82V484.05c0-17.55,11.47-31.82,25.58-31.82h28c14.1,0,25.57,14.27,25.57,31.82ZM85.36,434.1c-.33.45-.65.92-1,1.39s-.67,1-1,1.53-.63,1-.93,1.56-.57,1-.84,1.52-.66,1.27-1,1.91c-.17.34-.33.68-.49,1s-.25.53-.36.8-.2.45-.29.68c-.24.56-.47,1.13-.69,1.7-.11.27-.22.55-.31.82s-.21.55-.3.82c-.3.82-.57,1.64-.83,2.45q-.3,1-.57,1.95c-.17.61-.33,1.21-.48,1.81s-.25,1-.36,1.52c-.16.7-.31,1.39-.45,2.09,0,.17-.06.33-.1.5l-.09.5c0,.2-.08.4-.11.59s-.07.4-.1.59c-.1.6-.19,1.19-.28,1.78-.06.39-.11.78-.16,1.16-.07.55-.14,1.09-.2,1.63s-.12,1.08-.17,1.62c-.1,1.07-.18,2.12-.24,3.16,0,.52-.06,1-.08,1.54s-.05,1-.06,1.51c0,.32,0,.64,0,.95,0,1.19,0,2.35,0,3.47l6.09.54,8.07.6.63.05V430A48,48,0,0,0,85.36,434.1Zm637-.88h-28c-22.53,0-40.85,22.8-40.85,50.83V691.39c0,2.13.11,4.22.31,6.28v0c2.5,25.07,19.73,44.51,40.54,44.51h28c22.52,0,40.85-22.8,40.85-50.83V484.05C763.21,456,744.88,433.22,722.36,433.22Zm25.57,258.17c0,17.55-11.47,31.82-25.57,31.82h-28c-14.11,0-25.58-14.27-25.58-31.82V484.05c0-17.55,11.47-31.82,25.58-31.82h28c14.1,0,25.57,14.27,25.57,31.82ZM722.36,433.22h-28c-22.53,0-40.85,22.8-40.85,50.83V691.39c0,2.13.11,4.22.31,6.28v0c2.5,25.07,19.73,44.51,40.54,44.51h28c22.52,0,40.85-22.8,40.85-50.83V484.05C763.21,456,744.88,433.22,722.36,433.22Zm25.57,258.17c0,17.55-11.47,31.82-25.57,31.82h-28c-14.11,0-25.58-14.27-25.58-31.82V484.05c0-17.55,11.47-31.82,25.58-31.82h28c14.1,0,25.57,14.27,25.57,31.82ZM85.36,434.1c-.33.45-.65.92-1,1.39s-.67,1-1,1.53-.63,1-.93,1.56-.57,1-.84,1.52-.66,1.27-1,1.91c-.17.34-.33.68-.49,1s-.25.53-.36.8-.2.45-.29.68c-.24.56-.47,1.13-.69,1.7-.11.27-.22.55-.31.82s-.21.55-.3.82c-.3.82-.57,1.64-.83,2.45q-.3,1-.57,1.95c-.17.61-.33,1.21-.48,1.81s-.25,1-.36,1.52c-.16.7-.31,1.39-.45,2.09,0,.17-.06.33-.1.5l-.09.5c0,.2-.08.4-.11.59s-.07.4-.1.59c-.1.6-.19,1.19-.28,1.78-.06.39-.11.78-.16,1.16-.07.55-.14,1.09-.2,1.63s-.12,1.08-.17,1.62c-.1,1.07-.18,2.12-.24,3.16,0,.52-.06,1-.08,1.54s-.05,1-.06,1.51c0,.32,0,.64,0,.95,0,1.19,0,2.35,0,3.47l6.09.54,8.07.6.63.05V430A48,48,0,0,0,85.36,434.1Zm637-.88h-28c-22.53,0-40.85,22.8-40.85,50.83V691.39c0,2.13.11,4.22.31,6.28v0c2.5,25.07,19.73,44.51,40.54,44.51h28c22.52,0,40.85-22.8,40.85-50.83V484.05C763.21,456,744.88,433.22,722.36,433.22Zm25.57,258.17c0,17.55-11.47,31.82-25.57,31.82h-28c-14.11,0-25.58-14.27-25.58-31.82V484.05c0-17.55,11.47-31.82,25.58-31.82h28c14.1,0,25.57,14.27,25.57,31.82ZM722.36,433.22h-28c-22.53,0-40.85,22.8-40.85,50.83V691.39c0,2.13.11,4.22.31,6.28v0c2.5,25.07,19.73,44.51,40.54,44.51h28c22.52,0,40.85-22.8,40.85-50.83V484.05C763.21,456,744.88,433.22,722.36,433.22Zm25.57,258.17c0,17.55-11.47,31.82-25.57,31.82h-28c-14.11,0-25.58-14.27-25.58-31.82V484.05c0-17.55,11.47-31.82,25.58-31.82h28c14.1,0,25.57,14.27,25.57,31.82ZM85.36,434.1c-.33.45-.65.92-1,1.39s-.67,1-1,1.53-.63,1-.93,1.56-.57,1-.84,1.52-.66,1.27-1,1.91c-.17.34-.33.68-.49,1s-.25.53-.36.8-.2.45-.29.68c-.24.56-.47,1.13-.69,1.7-.11.27-.22.55-.31.82s-.21.55-.3.82c-.3.82-.57,1.64-.83,2.45q-.3,1-.57,1.95c-.17.61-.33,1.21-.48,1.81s-.25,1-.36,1.52c-.16.7-.31,1.39-.45,2.09,0,.17-.06.33-.1.5l-.09.5c0,.2-.08.4-.11.59s-.07.4-.1.59c-.1.6-.19,1.19-.28,1.78-.06.39-.11.78-.16,1.16-.07.55-.14,1.09-.2,1.63s-.12,1.08-.17,1.62c-.1,1.07-.18,2.12-.24,3.16,0,.52-.06,1-.08,1.54s-.05,1-.06,1.51c0,.32,0,.64,0,.95,0,1.19,0,2.35,0,3.47l6.09.54,8.07.6.63.05V430A48,48,0,0,0,85.36,434.1Zm637-.88h-28c-22.53,0-40.85,22.8-40.85,50.83V691.39c0,2.13.11,4.22.31,6.28v0c2.5,25.07,19.73,44.51,40.54,44.51h28c22.52,0,40.85-22.8,40.85-50.83V484.05C763.21,456,744.88,433.22,722.36,433.22Zm25.57,258.17c0,17.55-11.47,31.82-25.57,31.82h-28c-14.11,0-25.58-14.27-25.58-31.82V484.05c0-17.55,11.47-31.82,25.58-31.82h28c14.1,0,25.57,14.27,25.57,31.82ZM722.36,433.22h-28c-22.53,0-40.85,22.8-40.85,50.83V691.39c0,2.13.11,4.22.31,6.28v0c2.5,25.07,19.73,44.51,40.54,44.51h28c22.52,0,40.85-22.8,40.85-50.83V484.05C763.21,456,744.88,433.22,722.36,433.22Zm25.57,258.17c0,17.55-11.47,31.82-25.57,31.82h-28c-14.11,0-25.58-14.27-25.58-31.82V484.05c0-17.55,11.47-31.82,25.58-31.82h28c14.1,0,25.57,14.27,25.57,31.82ZM84.39,435.49c-.34.5-.67,1-1,1.53s-.63,1-.93,1.56-.57,1-.84,1.52-.66,1.27-1,1.91c-.17.34-.33.68-.49,1s-.25.53-.36.8-.2.45-.29.68c-.24.56-.47,1.13-.69,1.7-.11.27-.22.55-.31.82s-.21.55-.3.82c-.3.82-.57,1.64-.83,2.45q-.3,1-.57,1.95c-.17.61-.33,1.21-.48,1.81s-.25,1-.36,1.52c-.16.7-.31,1.39-.45,2.09,0,.17-.06.33-.1.5l-.09.5c0,.2-.08.4-.11.59s-.07.4-.1.59c-.1.6-.19,1.19-.28,1.78-.06.39-.11.78-.16,1.16-.07.55-.14,1.09-.2,1.63s-.12,1.08-.17,1.62c-.1,1.07-.18,2.12-.24,3.16,0,.52-.06,1-.08,1.54s-.05,1-.06,1.51c0,.32,0,.64,0,.95,0,1.19,0,2.35,0,3.47l6.09.54,8.07.6.63.05V430a48,48,0,0,0-3.35,4.13C85,434.55,84.71,435,84.39,435.49Zm655.28-51.77H674.08a76.75,76.75,0,0,0-26.87,4.82V298.11C683,248.39,736.89,147.6,685.09,42.51c-16-32.39-28.69-45-42.56-42.12l-.7.16c-19.67,4.86-24.23,40.08-27.25,93.84A30.24,30.24,0,0,0,606.23,85a21.54,21.54,0,0,0-16.93-3.52c-11.52,2.38-22.15,13.54-33.25,25.2-8.87,9.32-22.27,23.41-29.11,22.1a6.56,6.56,0,0,1-2.84-1.53c-2.32-1.89-5.69-6.08-9.45-15.34-7.24-17.84-16.25-28-27.54-31.23a28.75,28.75,0,0,0-12.26-.72c-11.93,1.76-23.4,10.25-35.37,19.1-17.66,13.06-31.69,22.43-45.89,20.09-9.31-1.53-18.69-8.08-29.22-21.91-14-18.43-27.58-28.1-41.44-29.57a35.85,35.85,0,0,0-8.23.08c-14,1.76-25.35,11.52-35.59,20.29-10.5,9-20.43,17.51-30.86,16.29a17,17,0,0,1-2.37-.44h0c-9.92-2.4-21.54-12.71-34.59-30.68-18.42-25.37-32.64-35.43-46.11-32.59h-.08c-18.56,4-23.83,29.11-29.93,58.22-4.1,19.54-9.7,46.3-18.68,50.55-1.79.85-4.32.57-7.54-.84-.54-.23-1.11-.5-1.7-.81-8.68-4.52-19.21-9-28.21-7.25a17.86,17.86,0,0,0-6.61,2.73c-10.5,7.11-9.05,21.51-7.65,35.42,1,10.49,2.36,23.55-2.06,28.18-2.53,2.65-8,2.93-12.14,2.72-1.24-.06-2.43-.1-3.6-.11-1.53,0-3,0-4.39.14-11.6.82-19.19,5.28-22.61,13.29-5.11,12,1.57,28.49,21,51.91a347,347,0,0,0,24.73,26.48l2,4.5V863.89A66.4,66.4,0,0,0,134,930.22H580.88a66.41,66.41,0,0,0,66.33-66.33v-77a76.75,76.75,0,0,0,26.87,4.82h65.59a77.13,77.13,0,0,0,77-77V460.76A77.13,77.13,0,0,0,739.67,383.72Zm-65.59,387a55.64,55.64,0,0,1-31.46-9.67l-16.41-11.17v114a45.39,45.39,0,0,1-45.33,45.33H134a45.38,45.38,0,0,1-45.33-45.33V316.22H95.2L83.27,288.91l-1.58-1.48a328.63,328.63,0,0,1-23.64-25c-17.37-20.65-18.71-29-18.74-31,.95-.42,3.71-1.26,10.12-.92,12.43.68,22-2.41,28.47-9.18,11.09-11.62,9.25-30,7.76-44.78-.49-4.83-1.18-11.71-.8-15.29,2,.38,5.87,1.57,12.69,5.11,10.16,5.3,19.55,6,27.92,2,18.4-8.71,24.42-37.44,30.24-65.22,2.41-11.5,4.69-22.36,7.58-30.7,3.46-9.95,6.18-11.28,6.18-11.29s7.07-.06,24.82,24.38c18.19,25,34.56,37.65,51.51,39.64,19.58,2.3,34.13-10.19,47-21.21,9.81-8.41,19.08-16.35,27.94-15.42,7.69.81,16.75,8,26.94,21.4,17.55,23.05,37.06,33.11,58,29.93,17.52-2.67,32.81-14,46.3-24,11.23-8.31,22.85-16.9,29.46-15,4.43,1.25,9.32,8,13.77,18.91,7.2,17.74,16.3,27.42,27.82,29.6a26.11,26.11,0,0,0,4.93.47c16,0,29.85-14.58,43.31-28.72,5.48-5.75,10.65-11.19,15.35-15,5.28-4.23,7.3-4.16,7.3-4.17s5,2.61,9.52,24a170.26,170.26,0,0,0,4.19,16.71c1,3.12,4.12,12.59,13.47,11.86,10.34-.82,11.43-12.31,12.16-19.92.63-6.67,1.08-15.65,1.61-26,.87-17.21,1.95-38.63,4.31-56.42,2.67-20.1,6-27.67,7.66-30.33,2.63,2.08,9,8.8,19.43,30,52,105.56-15,208.17-46.19,247.39l-13.56,17h19.7V425.56l16.41-11.17a55.64,55.64,0,0,1,31.46-9.67h65.59a56.1,56.1,0,0,1,56,56V714.68a56.1,56.1,0,0,1-56,56Zm89.13-79.33V484.05c0-28-18.33-50.83-40.85-50.83h-28c-22.53,0-40.85,22.8-40.85,50.83V691.39c0,2.13.11,4.22.31,6.28v0c2.5,25.07,19.73,44.51,40.54,44.51h28C744.88,742.22,763.21,719.42,763.21,691.39Zm-15.28,0c0,17.55-11.47,31.82-25.57,31.82h-28c-14.11,0-25.58-14.27-25.58-31.82V484.05c0-17.55,11.47-31.82,25.58-31.82h28c14.1,0,25.57,14.27,25.57,31.82ZM85.36,434.1c-.33.45-.65.92-1,1.39s-.67,1-1,1.53-.63,1-.93,1.56-.57,1-.84,1.52-.66,1.27-1,1.91c-.17.34-.33.68-.49,1s-.25.53-.36.8-.2.45-.29.68c-.24.56-.47,1.13-.69,1.7-.11.27-.22.55-.31.82s-.21.55-.3.82c-.3.82-.57,1.64-.83,2.45q-.3,1-.57,1.95c-.17.61-.33,1.21-.48,1.81s-.25,1-.36,1.52c-.16.7-.31,1.39-.45,2.09,0,.17-.06.33-.1.5l-.09.5c0,.2-.08.4-.11.59s-.07.4-.1.59c-.1.6-.19,1.19-.28,1.78-.06.39-.11.78-.16,1.16-.07.55-.14,1.09-.2,1.63s-.12,1.08-.17,1.62c-.1,1.07-.18,2.12-.24,3.16,0,.52-.06,1-.08,1.54s-.05,1-.06,1.51c0,.32,0,.64,0,.95,0,1.19,0,2.35,0,3.47l6.09.54,8.07.6.63.05V430A48,48,0,0,0,85.36,434.1Zm637-.88h-28c-22.53,0-40.85,22.8-40.85,50.83V691.39c0,2.13.11,4.22.31,6.28v0c2.5,25.07,19.73,44.51,40.54,44.51h28c22.52,0,40.85-22.8,40.85-50.83V484.05C763.21,456,744.88,433.22,722.36,433.22Zm25.57,258.17c0,17.55-11.47,31.82-25.57,31.82h-28c-14.11,0-25.58-14.27-25.58-31.82V484.05c0-17.55,11.47-31.82,25.58-31.82h28c14.1,0,25.57,14.27,25.57,31.82ZM722.36,433.22h-28c-22.53,0-40.85,22.8-40.85,50.83V691.39c0,2.13.11,4.22.31,6.28v0c2.5,25.07,19.73,44.51,40.54,44.51h28c22.52,0,40.85-22.8,40.85-50.83V484.05C763.21,456,744.88,433.22,722.36,433.22Zm25.57,258.17c0,17.55-11.47,31.82-25.57,31.82h-28c-14.11,0-25.58-14.27-25.58-31.82V484.05c0-17.55,11.47-31.82,25.58-31.82h28c14.1,0,25.57,14.27,25.57,31.82ZM85.36,434.1c-.33.45-.65.92-1,1.39s-.67,1-1,1.53-.63,1-.93,1.56-.57,1-.84,1.52-.66,1.27-1,1.91c-.17.34-.33.68-.49,1s-.25.53-.36.8-.2.45-.29.68c-.24.56-.47,1.13-.69,1.7-.11.27-.22.55-.31.82s-.21.55-.3.82c-.3.82-.57,1.64-.83,2.45q-.3,1-.57,1.95c-.17.61-.33,1.21-.48,1.81s-.25,1-.36,1.52c-.16.7-.31,1.39-.45,2.09,0,.17-.06.33-.1.5l-.09.5c0,.2-.08.4-.11.59s-.07.4-.1.59c-.1.6-.19,1.19-.28,1.78-.06.39-.11.78-.16,1.16-.07.55-.14,1.09-.2,1.63s-.12,1.08-.17,1.62c-.1,1.07-.18,2.12-.24,3.16,0,.52-.06,1-.08,1.54s-.05,1-.06,1.51c0,.32,0,.64,0,.95,0,1.19,0,2.35,0,3.47l6.09.54,8.07.6.63.05V430A48,48,0,0,0,85.36,434.1Zm637-.88h-28c-22.53,0-40.85,22.8-40.85,50.83V691.39c0,2.13.11,4.22.31,6.28v0c2.5,25.07,19.73,44.51,40.54,44.51h28c22.52,0,40.85-22.8,40.85-50.83V484.05C763.21,456,744.88,433.22,722.36,433.22Zm25.57,258.17c0,17.55-11.47,31.82-25.57,31.82h-28c-14.11,0-25.58-14.27-25.58-31.82V484.05c0-17.55,11.47-31.82,25.58-31.82h28c14.1,0,25.57,14.27,25.57,31.82ZM722.36,433.22h-28c-22.53,0-40.85,22.8-40.85,50.83V691.39c0,2.13.11,4.22.31,6.28v0c2.5,25.07,19.73,44.51,40.54,44.51h28c22.52,0,40.85-22.8,40.85-50.83V484.05C763.21,456,744.88,433.22,722.36,433.22Zm25.57,258.17c0,17.55-11.47,31.82-25.57,31.82h-28c-14.11,0-25.58-14.27-25.58-31.82V484.05c0-17.55,11.47-31.82,25.58-31.82h28c14.1,0,25.57,14.27,25.57,31.82ZM85.36,434.1c-.33.45-.65.92-1,1.39s-.67,1-1,1.53-.63,1-.93,1.56-.57,1-.84,1.52-.66,1.27-1,1.91c-.17.34-.33.68-.49,1s-.25.53-.36.8-.2.45-.29.68c-.24.56-.47,1.13-.69,1.7-.11.27-.22.55-.31.82s-.21.55-.3.82c-.3.82-.57,1.64-.83,2.45q-.3,1-.57,1.95c-.17.61-.33,1.21-.48,1.81s-.25,1-.36,1.52c-.16.7-.31,1.39-.45,2.09,0,.17-.06.33-.1.5l-.09.5c0,.2-.08.4-.11.59s-.07.4-.1.59c-.1.6-.19,1.19-.28,1.78-.06.39-.11.78-.16,1.16-.07.55-.14,1.09-.2,1.63s-.12,1.08-.17,1.62c-.1,1.07-.18,2.12-.24,3.16,0,.52-.06,1-.08,1.54s-.05,1-.06,1.51c0,.32,0,.64,0,.95,0,1.19,0,2.35,0,3.47l6.09.54,8.07.6.63.05V430A48,48,0,0,0,85.36,434.1Zm637-.88h-28c-22.53,0-40.85,22.8-40.85,50.83V691.39c0,2.13.11,4.22.31,6.28v0c2.5,25.07,19.73,44.51,40.54,44.51h28c22.52,0,40.85-22.8,40.85-50.83V484.05C763.21,456,744.88,433.22,722.36,433.22Zm25.57,258.17c0,17.55-11.47,31.82-25.57,31.82h-28c-14.11,0-25.58-14.27-25.58-31.82V484.05c0-17.55,11.47-31.82,25.58-31.82h28c14.1,0,25.57,14.27,25.57,31.82ZM722.36,433.22h-28c-22.53,0-40.85,22.8-40.85,50.83V691.39c0,2.13.11,4.22.31,6.28v0c2.5,25.07,19.73,44.51,40.54,44.51h28c22.52,0,40.85-22.8,40.85-50.83V484.05C763.21,456,744.88,433.22,722.36,433.22Zm25.57,258.17c0,17.55-11.47,31.82-25.57,31.82h-28c-14.11,0-25.58-14.27-25.58-31.82V484.05c0-17.55,11.47-31.82,25.58-31.82h28c14.1,0,25.57,14.27,25.57,31.82ZM85.36,434.1c-.33.45-.65.92-1,1.39s-.67,1-1,1.53-.63,1-.93,1.56-.57,1-.84,1.52-.66,1.27-1,1.91c-.17.34-.33.68-.49,1s-.25.53-.36.8-.2.45-.29.68c-.24.56-.47,1.13-.69,1.7-.11.27-.22.55-.31.82s-.21.55-.3.82c-.3.82-.57,1.64-.83,2.45q-.3,1-.57,1.95c-.17.61-.33,1.21-.48,1.81s-.25,1-.36,1.52c-.16.7-.31,1.39-.45,2.09,0,.17-.06.33-.1.5l-.09.5c0,.2-.08.4-.11.59s-.07.4-.1.59c-.1.6-.19,1.19-.28,1.78-.06.39-.11.78-.16,1.16-.07.55-.14,1.09-.2,1.63s-.12,1.08-.17,1.62c-.1,1.07-.18,2.12-.24,3.16,0,.52-.06,1-.08,1.54s-.05,1-.06,1.51c0,.32,0,.64,0,.95,0,1.19,0,2.35,0,3.47l6.09.54,8.07.6.63.05V430A48,48,0,0,0,85.36,434.1Zm637-.88h-28c-22.53,0-40.85,22.8-40.85,50.83V691.39c0,2.13.11,4.22.31,6.28v0c2.5,25.07,19.73,44.51,40.54,44.51h28c22.52,0,40.85-22.8,40.85-50.83V484.05C763.21,456,744.88,433.22,722.36,433.22Zm25.57,258.17c0,17.55-11.47,31.82-25.57,31.82h-28c-14.11,0-25.58-14.27-25.58-31.82V484.05c0-17.55,11.47-31.82,25.58-31.82h28c14.1,0,25.57,14.27,25.57,31.82ZM722.36,433.22h-28c-22.53,0-40.85,22.8-40.85,50.83V691.39c0,2.13.11,4.22.31,6.28v0c2.5,25.07,19.73,44.51,40.54,44.51h28c22.52,0,40.85-22.8,40.85-50.83V484.05C763.21,456,744.88,433.22,722.36,433.22Zm25.57,258.17c0,17.55-11.47,31.82-25.57,31.82h-28c-14.11,0-25.58-14.27-25.58-31.82V484.05c0-17.55,11.47-31.82,25.58-31.82h28c14.1,0,25.57,14.27,25.57,31.82ZM85.36,434.1c-.33.45-.65.92-1,1.39s-.67,1-1,1.53-.63,1-.93,1.56-.57,1-.84,1.52-.66,1.27-1,1.91c-.17.34-.33.68-.49,1s-.25.53-.36.8-.2.45-.29.68c-.24.56-.47,1.13-.69,1.7-.11.27-.22.55-.31.82s-.21.55-.3.82c-.3.82-.57,1.64-.83,2.45q-.3,1-.57,1.95c-.17.61-.33,1.21-.48,1.81s-.25,1-.36,1.52c-.16.7-.31,1.39-.45,2.09,0,.17-.06.33-.1.5l-.09.5c0,.2-.08.4-.11.59s-.07.4-.1.59c-.1.6-.19,1.19-.28,1.78-.06.39-.11.78-.16,1.16-.07.55-.14,1.09-.2,1.63s-.12,1.08-.17,1.62c-.1,1.07-.18,2.12-.24,3.16,0,.52-.06,1-.08,1.54s-.05,1-.06,1.51c0,.32,0,.64,0,.95,0,1.19,0,2.35,0,3.47l6.09.54,8.07.6.63.05V430A48,48,0,0,0,85.36,434.1Zm637-.88h-28c-22.53,0-40.85,22.8-40.85,50.83V691.39c0,2.13.11,4.22.31,6.28v0c2.5,25.07,19.73,44.51,40.54,44.51h28c22.52,0,40.85-22.8,40.85-50.83V484.05C763.21,456,744.88,433.22,722.36,433.22Zm25.57,258.17c0,17.55-11.47,31.82-25.57,31.82h-28c-14.11,0-25.58-14.27-25.58-31.82V484.05c0-17.55,11.47-31.82,25.58-31.82h28c14.1,0,25.57,14.27,25.57,31.82ZM722.36,433.22h-28c-22.53,0-40.85,22.8-40.85,50.83V691.39c0,2.13.11,4.22.31,6.28v0c2.5,25.07,19.73,44.51,40.54,44.51h28c22.52,0,40.85-22.8,40.85-50.83V484.05C763.21,456,744.88,433.22,722.36,433.22Zm25.57,258.17c0,17.55-11.47,31.82-25.57,31.82h-28c-14.11,0-25.58-14.27-25.58-31.82V484.05c0-17.55,11.47-31.82,25.58-31.82h28c14.1,0,25.57,14.27,25.57,31.82Z"/><path d="M282.71,298.22a22.5,22.5,0,1,0,22.5,22.5A22.52,22.52,0,0,0,282.71,298.22Zm0,43a20.5,20.5,0,1,1,20.5-20.5A20.52,20.52,0,0,1,282.71,341.22Z"/><path d="M400.21,243.22a37,37,0,1,0,37,37A37,37,0,0,0,400.21,243.22Zm0,72a35,35,0,1,1,35-35A35,35,0,0,1,400.21,315.22Z"/><path d="M207.71,426.22a17.52,17.52,0,0,0-17.5,17.5,17.26,17.26,0,0,0,1.85,7.82l.24.48.27.47a17.28,17.28,0,0,0,2,2.75,13.85,13.85,0,0,0,1,1,17.48,17.48,0,0,0,27.17-3.56q.38-.62.69-1.26a16.32,16.32,0,0,0,1.2-3.17,4.56,4.56,0,0,0,.13-.53,4.37,4.37,0,0,0,.12-.52,17,17,0,0,0,.36-3.52A17.52,17.52,0,0,0,207.71,426.22ZM222.59,448c-.05.18-.1.36-.16.53a15.38,15.38,0,0,1-1.49,3.21,12.74,12.74,0,0,1-.88,1.29,15.48,15.48,0,0,1-21.88,2.87,12.57,12.57,0,0,1-1.17-1,15.49,15.49,0,0,1-2.26-2.71l-.3-.47a3.72,3.72,0,0,1-.27-.48,15.29,15.29,0,0,1-2-7.54,15.5,15.5,0,1,1,30.53,3.8C222.69,447.69,222.65,447.87,222.59,448Z"/><path d="M538.2,423.72c0-.19,0-.37,0-.55s0-.37,0-.55a17,17,0,0,0-31-7.92c-.11.15-.21.31-.31.47s-.2.31-.29.47a17.1,17.1,0,0,0-1.33,2.84,9.21,9.21,0,0,0-.35,1.13,16.3,16.3,0,0,0-.65,4.61A17,17,0,0,0,537.78,428h0a11.11,11.11,0,0,0,.22-1.15,16.37,16.37,0,0,0,.21-2.63C538.21,424.05,538.21,423.88,538.2,423.72Zm-2.31,3.55a15,15,0,0,1-29.68-3,15.27,15.27,0,0,1,.64-4.36c.12-.38.25-.76.4-1.12a14.36,14.36,0,0,1,1.47-2.8,4.63,4.63,0,0,1,.31-.46c.11-.16.22-.31.34-.46A15,15,0,0,1,536,421.84a4.68,4.68,0,0,1,.07.54h0a5,5,0,0,1,.06.56c0,.42.06.84.06,1.27a14.6,14.6,0,0,1-.12,1.88C536,426.49,536,426.88,535.89,427.27Z"/><path d="M349.71,401.22a13.5,13.5,0,1,0,13.5,13.5A13.51,13.51,0,0,0,349.71,401.22Zm0,25a11.5,11.5,0,1,1,11.5-11.5A11.51,11.51,0,0,1,349.71,426.22Z"/><path d="M179.71,156.22a24.5,24.5,0,1,0,24.5,24.5A24.53,24.53,0,0,0,179.71,156.22Zm0,47a22.5,22.5,0,1,1,22.5-22.5A22.52,22.52,0,0,1,179.71,203.22Z"/><path d="M239.71,804.22a16.5,16.5,0,1,0,16.5,16.5A16.52,16.52,0,0,0,239.71,804.22Zm0,31a14.5,14.5,0,1,1,14.5-14.5A14.52,14.52,0,0,1,239.71,835.22Z"/><path d="M440.21,773.22a24,24,0,1,0,24,24A24,24,0,0,0,440.21,773.22Zm0,46a22,22,0,1,1,22-22A22,22,0,0,1,440.21,819.22Z"/><path d="M330.21,760.22a8,8,0,1,0,8,8A8,8,0,0,0,330.21,760.22Zm0,14a6,6,0,1,1,6-6A6,6,0,0,1,330.21,774.22Z"/><path d="M154.71,774.22a23.5,23.5,0,1,0,23.5,23.5A23.52,23.52,0,0,0,154.71,774.22Zm0,45a21.5,21.5,0,1,1,21.5-21.5A21.52,21.52,0,0,1,154.71,819.22Z"/><path class="cls-3" d="M586.84,741.88a10,10,0,0,1-9.7-12.23c5.53-23.6,7.8-51.21,8.64-65a225.33,225.33,0,0,0-71.33-11.21c-22.35,0-45.57,2.82-73.61,6.49L132.16,700.47a84.54,84.54,0,0,1-10.9.71c-49.83,0-93.23-44-101-102.41L1.15,454.35c-1.38-9.28,6.8-18.92,25-29.41,14.1-8.11,31.7-15.29,44-19.87a7.15,7.15,0,0,1,9.16,4,7.07,7.07,0,0,1-1.48,7.79c-11.18,11.51-14.22,27.66-14.56,40.48,14.21,1.21,28.54,1.83,42.67,1.83A494.79,494.79,0,0,0,170,455L473,415.18a130.92,130.92,0,0,1,17-1.11c27,0,53.84,8.49,77.73,24.56,23.27,15.64,43.11,38,57.38,64.68a198.21,198.21,0,0,1,22.78,104L643.2,697c-1.36,24.52-34,38.33-53.35,44.39A10,10,0,0,1,586.84,741.88Z"/><path class="cls-3" d="M627.67,507.08l0,0q-1-2-2.06-4c-14.31-26.75-34.21-49.18-57.54-64.86a149.22,149.22,0,0,0-29.92-15.59c-.7-.27-1.4-.53-2.11-.78A135,135,0,0,0,509.37,415c-.75-.12-1.49-.22-2.23-.32a130.87,130.87,0,0,0-34.17,0L224.85,447.24l-2.11.28-28.56,3.74-2.12.28-22.16,2.91a493.94,493.94,0,0,1-64,4.18q-8.57,0-17.21-.31-6.58-.22-13.17-.64-3.92-.23-7.83-.54c-1.32-.09-2.63-.2-3.95-.31a74.82,74.82,0,0,1,3.95-22.37q.44-1.23.93-2.43a45.94,45.94,0,0,1,9.53-14.86,7.58,7.58,0,0,0,1.57-8.34,7.65,7.65,0,0,0-7.06-4.73,7.54,7.54,0,0,0-2.73.5l-2.24.84c-2.78,1.05-5.78,2.22-8.92,3.5A275.14,275.14,0,0,0,25.9,424.51C7.5,435.1-.76,444.89.65,454.41L19.79,598.84c4.17,31.49,18.69,58.82,39,77.38a104.24,104.24,0,0,0,8.92,7.31A97.38,97.38,0,0,0,86.15,694.2h0c.85.38,1.69.73,2.55,1.08a86.84,86.84,0,0,0,32.55,6.4,83.74,83.74,0,0,0,11-.72l308.68-40.5c28-3.68,51.21-6.49,73.54-6.49A224,224,0,0,1,585.25,665q-.15,2.43-.36,5.31c-1.08,15-3.41,38.62-8.24,59.19A10.45,10.45,0,0,0,590,741.89c2.39-.75,5-1.61,7.68-2.6,19-6.92,43.75-19.9,45.92-40.87,0-.46.08-.91.11-1.37l.86-16.29h0l3.86-73.46A199,199,0,0,0,627.67,507.08Zm19.75,100.16L643.64,679l-.94,18c0,.17,0,.35,0,.52-1.54,20.71-25.88,33.65-44.76,40.62-2.9,1.08-5.67,2-8.21,2.8a9.59,9.59,0,0,1-2.86.44,9.47,9.47,0,0,1-9.21-11.62c4.83-20.55,7.17-44.1,8.26-59.18.15-2.14.28-4.11.39-5.88l0-.38-.37-.12A225.07,225.07,0,0,0,514.45,653c-22.39,0-45.63,2.82-73.67,6.5L132.1,700a83.61,83.61,0,0,1-10.84.71h0a85.67,85.67,0,0,1-32.54-6.48c-2.11-.85-4.18-1.8-6.23-2.83,0,0,0,0,0,0a95.84,95.84,0,0,1-14.75-9.07,103.76,103.76,0,0,1-8.92-7.42c-19.79-18.39-33.92-45.26-38-76.17L1.64,454.27c-1.35-9.08,6.75-18.53,24.76-28.9A275,275,0,0,1,58.79,410c3.13-1.27,6.14-2.45,8.92-3.5l2.59-1a6.67,6.67,0,0,1,8.52,3.69,6.57,6.57,0,0,1-1.37,7.25,46.91,46.91,0,0,0-9.74,15.19c-.13.31-.26.63-.38.94a74.78,74.78,0,0,0-4.58,24.68l0,.47.47,0c1.5.13,3,.25,4.51.36q3.81.3,7.64.53,6.68.42,13.36.64c5.76.21,11.51.31,17.21.31A495.94,495.94,0,0,0,170,455.45l22.54-3,2.18-.28,27.68-3.64,2.17-.28,248.5-32.61A129.78,129.78,0,0,1,490,414.57a128.41,128.41,0,0,1,16.5,1.07c.73.09,1.45.19,2.18.3a134.29,134.29,0,0,1,27.43,7c.69.24,1.37.5,2.05.77A147.64,147.64,0,0,1,567.49,439c21.94,14.74,40.83,35.49,54.84,60.21a.05.05,0,0,1,0,0c.8,1.41,1.59,2.82,2.35,4.26A197.58,197.58,0,0,1,647.42,607.24Z"/><path class="cls-3" d="M586.84,738.39a6.48,6.48,0,0,1-6.3-7.94c5.55-23.7,7.85-51.25,8.72-65.56l.17-2.71-2.59-.82A227.86,227.86,0,0,0,514.45,650c-22.57,0-45.9,2.82-74.06,6.52L131.71,697a81.14,81.14,0,0,1-10.45.68c-48.08,0-90-42.72-97.51-99.37L4.6,453.89c-1.13-7.67,6.71-16.37,23.29-25.92,13.9-8,31.3-15.09,43.46-19.63a3.65,3.65,0,0,1,4.72,2.05,3.58,3.58,0,0,1-.76,4C63.07,427,60.1,444.62,59.76,457.2l-.09,3.29,3.28.28c14.31,1.23,28.77,1.85,43,1.85a498.19,498.19,0,0,0,64.5-4.21l303.07-39.77A127.52,127.52,0,0,1,490,417.56c26.26,0,52.47,8.28,75.79,24,22.79,15.33,42.24,37.26,56.24,63.44a194.67,194.67,0,0,1,22.37,102.13l-4.72,89.75c-1.25,22.41-32.43,35.46-50.91,41.25A6.68,6.68,0,0,1,586.84,738.39Z"/><path class="cls-3" d="M586.84,737.23a5.32,5.32,0,0,1-5.17-6.52c5.57-23.77,7.88-51.4,8.75-65.75l.22-3.61-3.45-1.1a229.16,229.16,0,0,0-72.74-11.43c-22.64,0-46,2.83-74.21,6.53l-308.68,40.5a78.84,78.84,0,0,1-10.3.68c-47.5,0-88.93-42.28-96.36-98.37L5.76,453.74C4.7,446.57,12.34,438.26,28.47,429c13.83-8,31.17-15,43.29-19.55A2.48,2.48,0,0,1,75,410.84a2.44,2.44,0,0,1-.52,2.74C62,426.44,58.94,444.38,58.6,457.17l-.12,4.39,4.37.37c14.34,1.23,28.83,1.85,43.07,1.85a500.49,500.49,0,0,0,64.65-4.21L473.64,419.8a125.24,125.24,0,0,1,16.4-1.08c26,0,52,8.22,75.14,23.77,22.64,15.22,42,37,55.87,63A193.48,193.48,0,0,1,643.28,607l-4.72,89.75c-1.21,21.71-31.91,34.5-50.1,40.2A5.31,5.31,0,0,1,586.84,737.23Z"/><path class="cls-4" d="M75.07,490.47c-1.34-8.5-5-41.39,14.74-61.67a2.54,2.54,0,0,0-2.71-4.15c-25,9.33-68.32,28-65.91,44.26A84.39,84.39,0,0,0,35.7,505a2.56,2.56,0,0,0,2.92.89l34.8-12.59A2.54,2.54,0,0,0,75.07,490.47Z"/><path class="cls-4" d="M605.53,670.59s-1.39,41.45-9.22,74.9a5.31,5.31,0,0,0,6.78,6.26c16.25-5.08,48.8-18,50-40.14,1.64-29.54-36.11-68.92-36.11-68.92Z"/><path class="cls-5" d="M653.12,711.61h0C648.2,698.48,626.44,684,617,680.43c-59.79-22.63-100.46-18.26-161.93-10.19L146.82,710.69C96,717.36,48.33,673.7,40.3,613.13L21.19,468.91h0a502.07,502.07,0,0,0,164.59,5.82L488.43,435c59.81-7.85,116.43,28,147.21,85.59A193.37,193.37,0,0,1,657.84,622Z"/><g id="text"><path class="cls-2" d="M134.85,573.36A84.58,84.58,0,0,0,131.93,560a43.37,43.37,0,0,0-5.12-11.07,30,30,0,0,0-8-8.18A31.85,31.85,0,0,0,107.56,536a50.23,50.23,0,0,0-10.64-1.08H96q-3.48.06-7.29.41-2.8.25-5.78.67l-15.22,2.14-8.92,1.26-.71.1.53,3.74.18,1.31L67.71,608l2.75,19.55L88.71,625l6.6-.93a100.27,100.27,0,0,0,12.87-2.63l1.44-.42h0a50,50,0,0,0,9.35-3.93,30.65,30.65,0,0,0,14.76-17.85,43.81,43.81,0,0,0,2-12.13A84.84,84.84,0,0,0,134.85,573.36Zm-23,26.23A17.41,17.41,0,0,1,104,605a71.41,71.41,0,0,1-15,3.48l-.19,0-.07-.5-7.78-55.33,3.1-.44c1.64-.23,3.2-.4,4.68-.52l1.33-.1h.09c1.09-.07,2.13-.1,3.12-.1a35.5,35.5,0,0,1,4.29.23A15.85,15.85,0,0,1,105.8,555a17.52,17.52,0,0,1,5.1,7.74,69.5,69.5,0,0,1,3.19,13.94,67.3,67.3,0,0,1,.74,14.18,19.69,19.69,0,0,1-.76,4.16A14.23,14.23,0,0,1,111.83,599.59Z"/><path class="cls-2" d="M132.71,573.66a82.53,82.53,0,0,0-2.84-13A40.85,40.85,0,0,0,125,550.1a27.59,27.59,0,0,0-7.43-7.6,29.68,29.68,0,0,0-10.47-4.38,49,49,0,0,0-11.08-1q-3.5.06-7.32.42c-1.77.16-3.6.38-5.48.64l-15.52,2.19-7.19,1,.22,1.6,7,49.52L72.3,625.1l16.41-2.31,6.3-.88a97.28,97.28,0,0,0,12.59-2.57,48.44,48.44,0,0,0,10.34-4.16,31.57,31.57,0,0,0,6.9-5.17l0,0a25.44,25.44,0,0,0,1.77-2,29.3,29.3,0,0,0,5.06-9.45A40.5,40.5,0,0,0,133.55,587,80.52,80.52,0,0,0,132.71,573.66ZM117,591.05a18.46,18.46,0,0,1-3.42,9.84,15.51,15.51,0,0,1-2.62,2.7h0a22.46,22.46,0,0,1-6.19,3.47,72.42,72.42,0,0,1-15.47,3.6l-.56.08-1.77.25-8.2-58.34-.25-1.77,5.24-.74c1.75-.25,3.4-.43,5-.56a46.07,46.07,0,0,1,9.09.07,17.8,17.8,0,0,1,9.37,3.7,19.58,19.58,0,0,1,5.76,8.66,71.73,71.73,0,0,1,3.3,14.39A68.34,68.34,0,0,1,117,591.05Z"/><polygon class="cls-2" points="133.46 528.91 187.83 521.26 190.11 537.49 156.27 542.24 158.34 556.95 182.27 553.59 184.56 569.81 160.62 573.17 164.09 597.84 199.15 592.91 201.43 609.13 145.84 616.95 133.46 528.91"/><path class="cls-2" d="M197.31,595.35l-35.07,4.93-3.75-26.7-.32-2.25L180,568.26l2.16-.3L180.43,556l-23.94,3.37-2.42-17.2-.25-1.79,31.83-4.48,2-.28L186,523.7l-50.09,7,.23,1.6,11.55,82.15L197,607.57l2-.28Z"/><polygon class="cls-2" points="190.27 520.92 211.59 517.92 239.24 575.98 249.69 512.57 271.01 509.57 252.12 602.12 234.01 604.67 190.27 520.92"/><path class="cls-2" d="M251.56,514.48l-.28,1.67-11,67-.37-.77-29.55-62.08-16.72,2.35.8,1.53,40.82,78.15,14.89-2.09.2,0,18-88.06Z"/><path class="cls-2" d="M352.09,542.81a85.71,85.71,0,0,0-2.92-13.39,43.3,43.3,0,0,0-5.12-11.06,29.86,29.86,0,0,0-8-8.19,31.85,31.85,0,0,0-11.25-4.71,50.23,50.23,0,0,0-10.64-1.08h-.92a108.73,108.73,0,0,0-13.07,1.08L275.31,509l12.39,88,1.53-.22,23.32-3.28a99.56,99.56,0,0,0,12.87-2.63,50.54,50.54,0,0,0,10.82-4.36,32.39,32.39,0,0,0,8.76-7c.2-.22.39-.44.57-.67A31.73,31.73,0,0,0,351,568.66,43.45,43.45,0,0,0,353,556.53,83.66,83.66,0,0,0,352.09,542.81Zm-20,17.52a16.39,16.39,0,0,1-3,8.71,17.34,17.34,0,0,1-7.86,5.45,71.56,71.56,0,0,1-15,3.48l-.19,0-7.85-55.83,3.1-.44a67.31,67.31,0,0,1,9.22-.72,37.8,37.8,0,0,1,4.29.23,15.85,15.85,0,0,1,8.26,3.23,17.6,17.6,0,0,1,5.1,7.74,69.5,69.5,0,0,1,3.19,13.94A67.3,67.3,0,0,1,332.07,560.33Z"/><path class="cls-2" d="M350,543.11a83.3,83.3,0,0,0-2.82-13l0-.05a40.85,40.85,0,0,0-4.86-10.51,27.59,27.59,0,0,0-7.43-7.6,29.68,29.68,0,0,0-10.47-4.38,49,49,0,0,0-11.08-1,106.48,106.48,0,0,0-12.8,1.06l-22.71,3.2.22,1.6,11.55,82.15,22.72-3.19a97.28,97.28,0,0,0,12.59-2.57,48.65,48.65,0,0,0,10.34-4.16A28.5,28.5,0,0,0,348.94,568a40.5,40.5,0,0,0,1.85-11.51A80.59,80.59,0,0,0,350,543.11ZM334.22,560.5a18.46,18.46,0,0,1-3.42,9.84,19.4,19.4,0,0,1-8.82,6.17,72.42,72.42,0,0,1-15.47,3.6l-2.33.33L296,522.1l-.25-1.77,5.24-.74A55.37,55.37,0,0,1,315,519.1a17.8,17.8,0,0,1,9.37,3.7,19.58,19.58,0,0,1,5.76,8.66,60.07,60.07,0,0,1,2.37,8.83c.34,1.73.65,3.59.93,5.56A68.34,68.34,0,0,1,334.22,560.5Z"/><path class="cls-2" d="M437.76,572.05h0l-2.67-4.88-41-74.91L374.83,495,354,587.68l3.76-.53,16.67-2.35.58-.08L380.83,558l.08-.35,24.63-3.46.17.31,13,24.09,2.55-.36,16.67-2.34,1.79-.25Zm-49.6-52.12L397.52,539l-13.09,1.84Z"/><path class="cls-2" d="M434.86,571.24l-.57-1-40.54-74.07-.83-1.52-16.31,2.3-19.85,88.2,1.47-.21,14.95-2.1,5.94-27.09,27.6-3.88,1.26,2.34,11.92,22.06.27,0,16.15-2.27ZM387.2,513.05l1.13,2.31,12.44,25.36-17.4,2.45-1.59.22Z"/><path class="cls-2" d="M455,574c-1,0-2,0-3.09,0a74.44,74.44,0,0,1-7.89-.69,56.74,56.74,0,0,1-7.93-1.7l-2-.59L438,556.09l2,.47a72.6,72.6,0,0,0,10.47,1.62c1.24.1,2.53.15,3.83.15a56.74,56.74,0,0,0,7.83-.57,34.26,34.26,0,0,0,7.14-1.73,16.21,16.21,0,0,0,5-2.84,9.75,9.75,0,0,0,2.77-3.87,10.33,10.33,0,0,0,.44-5.2,8.76,8.76,0,0,0-1.86-4.75,9.48,9.48,0,0,0-4-2.53,29.32,29.32,0,0,0-6.61-1.39l-9.11-1a83.85,83.85,0,0,1-10.62-1.87,27.8,27.8,0,0,1-8.94-3.9,21.81,21.81,0,0,1-6.53-7.05,29.5,29.5,0,0,1-3.49-10.92,21.43,21.43,0,0,1,.38-8.44,20.66,20.66,0,0,1,3.24-6.92,25.49,25.49,0,0,1,5.26-5.32,37.4,37.4,0,0,1,6.4-3.86,43.9,43.9,0,0,1,7-2.61,54.54,54.54,0,0,1,6.86-1.46c1.52-.21,3.38-.39,5.52-.53,1.39-.09,2.85-.14,4.36-.14.85,0,1.72,0,2.61.05,2.45.08,5,.27,7.69.59a53.07,53.07,0,0,1,7.92,1.55l2,.56L481.94,499l-2-.43a70.43,70.43,0,0,0-9.78-1.33c-1-.07-2-.1-3-.1a51.38,51.38,0,0,0-7.23.52,32.89,32.89,0,0,0-5.94,1.36,14.06,14.06,0,0,0-4.15,2.14,6.76,6.76,0,0,0-2.17,2.79,7.26,7.26,0,0,0-.35,3.82,7.8,7.8,0,0,0,1.66,4.27,8.26,8.26,0,0,0,3.64,2.16,31.27,31.27,0,0,0,6.4,1.17c2.68.24,5.75.56,9.13,1a76.05,76.05,0,0,1,10.64,1.95,29.6,29.6,0,0,1,9.16,4.1,23.56,23.56,0,0,1,6.84,7.38,30.94,30.94,0,0,1,3.68,11.44,26.62,26.62,0,0,1-.49,10.93,23.45,23.45,0,0,1-4.15,8.26,25.15,25.15,0,0,1-6.58,5.83A45.24,45.24,0,0,1,479.6,570a53.15,53.15,0,0,1-7.61,2.27c-2.43.53-4.6.92-6.47,1.19s-4,.39-6.26.51C457.89,574,456.46,574,455,574Z"/><path class="cls-2" d="M496.25,541.49a28.37,28.37,0,0,0-3.39-10.63,21.36,21.36,0,0,0-5-5.78c-.4-.33-.81-.63-1.23-.92a27.35,27.35,0,0,0-8.49-3.8,74.39,74.39,0,0,0-10.34-1.9c-3.38-.4-6.41-.71-9.07-1a32.11,32.11,0,0,1-6.86-1.27,12.19,12.19,0,0,1-2.43-1,9.24,9.24,0,0,1-2.15-1.69,9.83,9.83,0,0,1-2.22-5.45,9.29,9.29,0,0,1,.5-4.94,8.81,8.81,0,0,1,2.84-3.66,16,16,0,0,1,4.78-2.49,34.29,34.29,0,0,1,6.33-1.45,52,52,0,0,1,10.72-.44,71.54,71.54,0,0,1,10.08,1.37l2.56-10.1.15-.61a50.32,50.32,0,0,0-7.6-1.49q-3.9-.47-7.5-.58t-6.76.09c-2.1.14-3.89.31-5.37.52a50,50,0,0,0-6.57,1.4,40.62,40.62,0,0,0-6.63,2.48,34.64,34.64,0,0,0-6,3.63,22.87,22.87,0,0,0-4.81,4.87,18.22,18.22,0,0,0-2.9,6.2,19,19,0,0,0-.33,7.59,27.48,27.48,0,0,0,3.2,10.12,19.8,19.8,0,0,0,4.53,5.33,15.17,15.17,0,0,0,1.36,1,25.55,25.55,0,0,0,8.25,3.59,78,78,0,0,0,10.33,1.81c3.33.37,6.37.69,9.1,1a31.1,31.1,0,0,1,7.1,1.5,11.87,11.87,0,0,1,4.86,3.1h0a10.86,10.86,0,0,1,2.4,5.9,12.42,12.42,0,0,1-.57,6.29,11.91,11.91,0,0,1-3.38,4.72,18.07,18.07,0,0,1-5.69,3.24,37.24,37.24,0,0,1-7.58,1.84,54.79,54.79,0,0,1-12.15.43,74.2,74.2,0,0,1-10.77-1.67l-2.87,10.86q1.24.36,2.52.66a50.44,50.44,0,0,0,5.1,1,73.22,73.22,0,0,0,7.67.68q3.76.12,7.15-.06c2.26-.12,4.29-.28,6.08-.5s3.93-.64,6.31-1.15a50.58,50.58,0,0,0,7.3-2.19,42.47,42.47,0,0,0,7.22-3.57,23.08,23.08,0,0,0,6-5.33,21.24,21.24,0,0,0,3.75-7.5A24.25,24.25,0,0,0,496.25,541.49Z"/><path class="cls-2" d="M130.16,576.29A84.81,84.81,0,0,0,127.27,563a41.77,41.77,0,0,0-4.94-10.67,27.93,27.93,0,0,0-7.53-7.71,30.1,30.1,0,0,0-10.64-4.44,49.19,49.19,0,0,0-11.24-1.05c-1.37,0-2.77.08-4.21.17-2.79.17-5.71.47-8.78.91L67.71,542l-7,1-2,.27-.18,0-1.73.24,1.91,13.59,8.92,63.45,1.12,8,19.88-2.79,3.18-.45a96.06,96.06,0,0,0,12.77-2.61c1.73-.49,3.38-1,5-1.65h0a44.26,44.26,0,0,0,5.51-2.56,30,30,0,0,0,8.83-7.3c.3-.37.58-.74.85-1.12l0,0a30,30,0,0,0,4.26-8.44A41.64,41.64,0,0,0,131,589.86,83,83,0,0,0,130.16,576.29ZM78.74,552.65l1.7-.24a75.5,75.5,0,0,1,8.27-.73l1.33,0h.09a38.51,38.51,0,0,1,4.59.25,18.18,18.18,0,0,1,9.51,3.76,20,20,0,0,1,5.85,8.79,72.82,72.82,0,0,1,3.34,14.61,69.26,69.26,0,0,1,.77,14.87c0,.37-.07.74-.12,1.1a18.06,18.06,0,0,1-3.13,8.55h0a3.15,3.15,0,0,1-.22.33,19.67,19.67,0,0,1-8.95,6.27,67.88,67.88,0,0,1-13.05,3.26l-2.65.39-2.36.33-8.58-61Z"/><path class="cls-2" d="M197.29,609.71l-.3-2.14-1.3-9.27-35.59,5L156,573.93l2.52-.35,2.13-.31,19.65-2.76v-.11l-.31-2.14-1.39-9.87-24.3,3.42-2.71-19.27,2.52-.35,31.83-4.48-.25-1.79-1.45-10.33-48.08,6.76-2.14.3-.62.09,11.95,85,52.08-7.33Z"/><path class="cls-2" d="M251.28,516.15l-.51.07-10.9,66.14-.58,3.54-30.38-63.79-14.51,2-2.27.32-.18,0,42.24,80.87,15.31-2.15.15-.75.46-2.25,17.63-86.38Z"/><path class="cls-2" d="M350.66,545.28A84.81,84.81,0,0,0,347.77,532c-.2-.65-.42-1.29-.64-1.92l0-.05a40.27,40.27,0,0,0-4.28-8.7,28.07,28.07,0,0,0-7.53-7.71,30.05,30.05,0,0,0-10.63-4.44,49.25,49.25,0,0,0-11.24-1,105.84,105.84,0,0,0-13,1.07L278,512.4l-.6.08,11.85,84.3.1.71,23.06-3.24a96.06,96.06,0,0,0,12.77-2.61,48.68,48.68,0,0,0,10.5-4.22,29.87,29.87,0,0,0,8.83-7.3q.27-.33.51-.66a29.46,29.46,0,0,0,4.63-8.92,41.77,41.77,0,0,0,1.88-11.69A83,83,0,0,0,350.66,545.28ZM296,522.1l5-.69a56.15,56.15,0,0,1,14.28-.5,18.09,18.09,0,0,1,9.51,3.75,19.86,19.86,0,0,1,5.85,8.8,55.74,55.74,0,0,1,2,6.83c.53,2.35,1,4.94,1.39,7.77a69.82,69.82,0,0,1,.76,14.87,18.71,18.71,0,0,1-3.48,10,19.75,19.75,0,0,1-8.94,6.26,73.52,73.52,0,0,1-15.71,3.65l-2.36.34-8.58-61Z"/><path class="cls-2" d="M437.93,575.87l-2.43-4.44-1-1.9-40.21-73.48-.5.07-16.06,2.26-19.46,86.51-.51,2.26-.17.75,16.67-2.34.17-.76,5.85-26.74.59-.08,24.88-3.5,2.27-.32.28,0,11.91,22.06,1.09,2,.37.68,16.67-2.34Zm-49.49-61.1,13.77,28.09-19.27,2.71.43-2.4,5-27.81Z"/><path class="cls-2" d="M499.16,543.63a34.21,34.21,0,0,0-1.65-6.93v0h0v0a21.95,21.95,0,0,0-8.07-10.6q-.74-.51-1.53-1a27.68,27.68,0,0,0-7.09-2.89,74.53,74.53,0,0,0-10.49-1.93c-3.43-.4-6.5-.73-9.21-1a33.22,33.22,0,0,1-7-1.28,10.57,10.57,0,0,1-4.64-2.78l0,0a10.11,10.11,0,0,1-2.23-5.49,11.27,11.27,0,0,1-.07-2.64,8.06,8.06,0,0,1,.58-2.38,9,9,0,0,1,2.88-3.72,15.23,15.23,0,0,1,3.63-2.06h0c.39-.16.79-.31,1.21-.45a35.25,35.25,0,0,1,6.42-1.48,53.55,53.55,0,0,1,10.88-.44,72.54,72.54,0,0,1,9.46,1.23l.78.16L485.78,487c-.26-.07-.51-.14-.77-.19-.69-.19-1.39-.36-2.1-.5a48.57,48.57,0,0,0-4.85-.81q-4-.46-7.62-.59t-6.86.09c-2.13.14-3.94.32-5.44.53a51.7,51.7,0,0,0-6.68,1.42,42.18,42.18,0,0,0-6.73,2.51,36.1,36.1,0,0,0-6.11,3.69,23.3,23.3,0,0,0-4.88,4.94,18.64,18.64,0,0,0-2.94,6.29,19.45,19.45,0,0,0-.34,7.71,27.6,27.6,0,0,0,3.26,10.27,20.83,20.83,0,0,0,2.58,3.5,18.65,18.65,0,0,0,3.39,3,25.83,25.83,0,0,0,8.38,3.65,80.28,80.28,0,0,0,10.48,1.84l9.24,1a32.08,32.08,0,0,1,7.21,1.52,13.88,13.88,0,0,1,2.3,1.06h0a10.62,10.62,0,0,1,2.62,2.1,10.93,10.93,0,0,1,2.44,6,12.43,12.43,0,0,1-.58,6.38,12.07,12.07,0,0,1-3.42,4.8,18.63,18.63,0,0,1-5.78,3.28,37,37,0,0,1-7.7,1.87,55.11,55.11,0,0,1-12.32.43,76.37,76.37,0,0,1-10.94-1.68l-2.41,9.11-.5,1.91c1.26.36,2.53.68,3.82,1l.12,0,.09,0c1.22.26,2.45.47,3.7.65a75.52,75.52,0,0,0,7.79.69q3.81.12,7.25-.06c2.3-.12,4.35-.29,6.17-.51s4-.65,6.41-1.17a51.52,51.52,0,0,0,7.4-2.21,43.43,43.43,0,0,0,7.33-3.63,23.11,23.11,0,0,0,6.11-5.41,21.68,21.68,0,0,0,3.82-7.62A24.79,24.79,0,0,0,499.16,543.63Z"/></g><g id="side_line" data-name="side line"><path class="cls-2" d="M581.42,497.23a2.09,2.09,0,0,1,1.28-1.38l14.92-5.41a2,2,0,1,1,1.4,3.85l-14.92,5.42a2.06,2.06,0,0,1-2.68-2.48Z"/><path class="cls-2" d="M589.06,524a2,2,0,0,1,2.52-1.42l22,6.11a2.05,2.05,0,0,1-1.1,4l-22-6.11A2.06,2.06,0,0,1,589.06,524Z"/><path class="cls-2" d="M578,555.14a2.08,2.08,0,0,1,.91-1.2,2.05,2.05,0,0,1,2.82.68l11.81,19.28A2.05,2.05,0,0,1,590,576l-11.81-19.28A2.07,2.07,0,0,1,578,555.14Z"/><path class="cls-2" d="M546.71,457.88a1.94,1.94,0,0,1,.45-.8,2,2,0,0,1,2.77-.11l11.38,10.48a2,2,0,0,1-2.66,2.89l-11.38-10.49A2,2,0,0,1,546.71,457.88Z"/><path class="cls-2" d="M520.5,486.23a.56.56,0,0,1,0-.12A2,2,0,0,1,523,484.9l19.3,6.68a2,2,0,0,1-1.28,3.7l-19.3-6.68A1.94,1.94,0,0,1,520.5,486.23Z"/><path class="cls-2" d="M502.17,526.63a2,2,0,0,1,1.37-1.37l23-6.34a2,2,0,0,1,1,3.78l-23,6.34a2,2,0,0,1-2.41-1.37A2,2,0,0,1,502.17,526.63Z"/></g><g id="bottle"><path class="cls-2" d="M574.58,532.07l-24.37,69.75a7.91,7.91,0,0,1-10.08,4.86l-23.35-8.16a7.9,7.9,0,0,1-4.86-10.07l24.37-69.76a19.6,19.6,0,0,1,21.28-12.93.05.05,0,0,0,0,0l9.78-28a4.9,4.9,0,0,1,6.3-3.08,4.64,4.64,0,0,1,2.43,2.3,4.59,4.59,0,0,1,.21,3.57l-9.92,28.39a0,0,0,0,0,0,.05A19.61,19.61,0,0,1,574.58,532.07Z"/><path class="cls-6" d="M576.58,476.74a5.19,5.19,0,0,0-2.26-2.35l-.43-.2a5,5,0,0,0-1.3-.33,4.27,4.27,0,0,0-1,0,4.47,4.47,0,0,0-1.13.24h0a5.38,5.38,0,0,0-.51.2,5.65,5.65,0,0,0-3,3.27l-8.74,25-.33.94-.17.5-.18.51-.24.69a20,20,0,0,0-4.64,0,19.78,19.78,0,0,0-3.52.71,19,19,0,0,0-3.59,1.46,20.13,20.13,0,0,0-9.71,11.19l-24.37,69.75a8.32,8.32,0,0,0,.37,6.42,8.44,8.44,0,0,0,1,1.57h0a8.23,8.23,0,0,0,3.31,2.51,4.34,4.34,0,0,0,.5.2l1.55.53.09,0L540,607.15a8.44,8.44,0,0,0,2.7.48h.08a8.46,8.46,0,0,0,2.89-.51h0c.26-.1.46-.21.71-.33a8.41,8.41,0,0,0,4.29-4.8l24.37-69.76a20.22,20.22,0,0,0-8-23.49l9.8-28.05A5.11,5.11,0,0,0,576.58,476.74ZM574.1,531.9l-24.37,69.75a6,6,0,0,1-.39.9,7.32,7.32,0,0,1-3.39,3.34,7.16,7.16,0,0,1-3,.73h0a7.4,7.4,0,0,1-2.66-.41l-23.35-8.16c-.1,0-.2-.07-.3-.12a6.69,6.69,0,0,1-1.51-.82,7.17,7.17,0,0,1-2.42-2.84,7.32,7.32,0,0,1-.32-5.66l24.37-69.75a18.77,18.77,0,0,1,2.16-4.32,19.14,19.14,0,0,1,3.57-4h0a19.34,19.34,0,0,1,3.56-2.37,18.91,18.91,0,0,1,7-2h0c.56-.05,1.12-.08,1.68-.08a19.26,19.26,0,0,1,2.72.2l.46,0,.25-.71.36-1,.17-.5.17-.49,9-25.64a4.59,4.59,0,0,1,.84-1.45,4.7,4.7,0,0,1,1.17-1h0a3.88,3.88,0,0,1,.45-.24,3.57,3.57,0,0,1,.6-.21,3.92,3.92,0,0,1,1.89-.09,4.12,4.12,0,0,1,2.85,2.26,3.79,3.79,0,0,1,.18.42h0a4.09,4.09,0,0,1,0,2.76l-9.92,28.39-.1.44.33.21a3.39,3.39,0,0,1,.34.23,18.53,18.53,0,0,1,5.83,6A19.17,19.17,0,0,1,574.1,531.9Z"/><path class="cls-2" d="M545.74,608.68a9.27,9.27,0,0,1-3.12-.54L519.26,600a9.46,9.46,0,0,1-5.81-12.05l24.38-69.75a21.17,21.17,0,0,1,20-14.17c.58,0,1.17,0,1.76.07l9.39-26.85a6.61,6.61,0,0,1,6.12-4.44,5.87,5.87,0,0,1,2.23.44A6.23,6.23,0,0,1,580.8,481l-9.54,27.29A21.28,21.28,0,0,1,579,532.58l-24.38,69.75A9.46,9.46,0,0,1,545.74,608.68Z"/><path class="cls-6" d="M581,476.07a6.69,6.69,0,0,0-3.5-3.31,6.42,6.42,0,0,0-2.41-.47,7,7,0,0,0-4.61,1.81h0a7.18,7.18,0,0,0-.88.95h0a6.77,6.77,0,0,0-.84,1.39,4.6,4.6,0,0,0-.25.61l-9.26,26.49h-.29l-.52,0h-.61a21.52,21.52,0,0,0-12.26,3.83,20.21,20.21,0,0,0-3.29,2.77,21,21,0,0,0-3.31,4.43,20.55,20.55,0,0,0-1.57,3.47L513,587.77a9.86,9.86,0,0,0,.43,7.61,1.3,1.3,0,0,1,.08.17,10.35,10.35,0,0,0,1.26,1.91h0a9.35,9.35,0,0,0,1.35,1.32,10,10,0,0,0,3,1.66l23.36,8.16a9.94,9.94,0,0,0,12.68-6.11l24.37-69.76a21.72,21.72,0,0,0-7.65-24.6l9.41-26.94A6.62,6.62,0,0,0,581,476.07Zm-.65,4.8-9.66,27.65.31.21a20.75,20.75,0,0,1,7.59,23.68l-24.37,69.76a9,9,0,0,1-11.41,5.5l-.12,0-23.24-8.12a7.75,7.75,0,0,1-.94-.39h0a8.73,8.73,0,0,1-1.82-1.18,9,9,0,0,1-2.72-9.83l24.38-69.76a20.73,20.73,0,0,1,10.9-12h0a21.32,21.32,0,0,1,3.42-1.2,19.8,19.8,0,0,1,4.88-.65H558a4.69,4.69,0,0,1,.53,0c.31,0,.63,0,.94.05l.38,0,9.52-27.22a6.07,6.07,0,0,1,1.53-2.39,5.54,5.54,0,0,1,.8-.65h0a0,0,0,0,0,0,0,6.07,6.07,0,0,1,.82-.48,5.66,5.66,0,0,1,2.47-.57,5.25,5.25,0,0,1,2,.4,5.68,5.68,0,0,1,3,2.81A5.62,5.62,0,0,1,580.32,480.87Z"/><path class="cls-2" d="M577.58,532.07,553.2,601.82a7.9,7.9,0,0,1-10.07,4.86l-23.36-8.16a7.9,7.9,0,0,1-4.85-10.07l24.37-69.76a19.6,19.6,0,0,1,21.28-12.93.05.05,0,0,0,0,0l9.78-28a4.89,4.89,0,0,1,6.3-3.08,4.7,4.7,0,0,1,2.64,5.87l-9.92,28.39a0,0,0,0,0,0,.05A19.61,19.61,0,0,1,577.58,532.07Z"/><path class="cls-6" d="M581.83,475.66a7.63,7.63,0,0,0-4-3.78,7.42,7.42,0,0,0-5.93.14,8.2,8.2,0,0,0-3.94,3.75,6.88,6.88,0,0,0-.41,1l-9,25.83h-.35a22.6,22.6,0,0,0-19.71,10.85,21.84,21.84,0,0,0-2,4.28l-24.37,69.75a10.5,10.5,0,0,0-.58,2.95,7.57,7.57,0,0,0,0,1.26,11,11,0,0,0,1.06,4.13l.24.48h0a10.84,10.84,0,0,0,6,5.07l23.35,8.16a10.81,10.81,0,0,0,8.34-.47,10.83,10.83,0,0,0,5.56-6.23l24.37-69.75A22.74,22.74,0,0,0,573,507.79l9.18-26.27A7.59,7.59,0,0,0,581.83,475.66ZM517.74,589.43l24.38-69.75a16.61,16.61,0,0,1,15.67-11.12,16.1,16.1,0,0,1,2.39.17,3.08,3.08,0,0,0,3.27-2l9.78-28a2.15,2.15,0,0,1,1.14-1.23,1.49,1.49,0,0,1,1.19-.06,1.43,1.43,0,0,1,.3.16h0a1.74,1.74,0,0,1,.57.66,1.36,1.36,0,0,1,.15.47v.06c0,.07,0,.14,0,.21a1.71,1.71,0,0,1-.1.54l-9.91,28.35a2.94,2.94,0,0,0-.17,1v0a2.74,2.74,0,0,0,.09.7,3.14,3.14,0,0,0,1.34,1.89,16.33,16.33,0,0,1,4.49,4.14,16.7,16.7,0,0,1,2.4,15.42l-.33.93-24,68.82a5,5,0,0,1-1,1.72,5,5,0,0,1-5.23,1.3l-23.35-8.16a4.93,4.93,0,0,1-3-6.26Z"/></g></g></g></svg>